<svg fill="none" height="812" viewBox="0 0 375 812" width="375" xmlns="http://www.w3.org/2000/svg">
    <g clip-path="url(#clip0_0_12584)">
        <rect fill="white" height="812" width="375" />
        <path
            d="M201.008 266.33C161.149 422.443 -19.5441 258.17 -61.2191 155.021C-102.894 51.8718 -53.0593 -65.5313 50.0897 -107.206C153.239 -148.881 237.498 -79.7022 282.998 11.2978C328.498 102.298 240.867 110.216 201.008 266.33Z"
            fill="#D9E4FF" />
        <path
            d="M42.9996 -131.222C138.438 -261.036 244.435 -41.0359 244.435 70.214C244.435 181.464 154.25 271.65 42.9996 271.65C-68.2502 271.65 -158.436 181.464 -158.436 70.214C-158.436 -41.0359 -52.4385 -1.40715 42.9996 -131.222Z"
            fill="#004BFE" />
        <path d="M255.985 558.484L105 559.932L131.756 433.87L238.146 439.052L255.985 558.484Z"
            fill="#8BC6FF" />
        <path
            d="M270 565H128.996L129.788 559.696L255.985 558.486L238.766 443.202L255.985 441.628L270 565Z"
            fill="#0051FF" fill-opacity="0.6" />
        <path d="M129.788 559.696L145.921 451.688L238.766 443.202L255.985 558.486L129.788 559.696Z"
            fill="#0051FF" fill-opacity="0.6" />
        <path
            d="M221.256 430.474H212.235C212.235 421.218 203.4 413.688 192.538 413.688C181.677 413.688 172.841 421.218 172.841 430.474H163.819C163.819 416.979 176.702 406 192.538 406C208.373 406 221.256 416.979 221.256 430.474Z"
            fill="#5982DA" />
    </g>
    <defs>
        <clipPath id="clip0_0_12584">
            <rect fill="white" height="812" width="375" />
        </clipPath>
    </defs>
</svg>
